<svg width="44" height="50" viewBox="0 0 44 50" fill="none" xmlns="http://www.w3.org/2000/svg">
<path d="M38.4004 24.9058C37.035 26.3804 35.5786 27.7458 34.0312 29.0747C31.8649 30.9498 29.6621 32.7703 27.4229 34.518C25.0199 33.0434 23.2904 32.297 22.9991 32.6793C22.7443 33.0252 23.7455 34.2995 25.5478 35.9561C19.5038 40.4527 13.1139 44.4214 6.25073 47.68C5.17665 48.1898 4.04795 48.5538 2.93746 48.9544C2.64618 49.0636 2.3367 49.0636 2.20927 49.0818C0.461608 49.282 -0.0663309 48.8087 0.00648821 47.2067C0.224946 42.2186 1.77235 37.54 3.37437 32.8795C3.81129 31.6052 4.26641 30.3309 4.73973 29.0565C7.16097 30.5311 8.89042 31.2957 9.1817 30.9134C9.49118 30.4947 8.0348 28.8199 5.59536 26.7263C7.34301 22.2115 9.29093 17.7696 11.5847 13.5096C16.1723 16.9139 20.2502 19.1531 20.7053 18.5342C21.1604 17.9152 17.7926 14.6201 13.1503 11.1794L12.9501 11.0338C13.7511 9.66844 14.5885 8.30308 15.4806 6.97413C16.591 5.29929 17.9564 3.77009 19.3036 2.2773C21.1058 0.292976 23.436 -0.380602 26.0393 0.201951C34.3771 2.05884 40.1662 6.8467 42.897 15.0571C43.4431 16.7319 42.9516 18.3703 42.0959 19.8813C41.5134 20.9008 40.8762 21.8656 40.1662 22.7759C35.7607 19.5536 31.9377 17.4783 31.5008 18.0608C31.082 18.6434 34.1222 21.6472 38.4004 24.9058Z" fill="white"/>
</svg>
