<svg width="21" height="16" viewBox="0 0 21 16" fill="none" xmlns="http://www.w3.org/2000/svg">
<path d="M2.09155 0.485229H18.0916C18.5302 0.485229 18.9544 0.649019 19.2927 0.946167L19.4324 1.08191C19.7895 1.46499 19.9919 1.98656 19.9919 2.53113V13.2567C19.9919 13.8012 19.7895 14.322 19.4324 14.705C19.0754 15.0877 18.5931 15.3016 18.0916 15.3016H2.09155C1.65281 15.3016 1.22868 15.1379 0.890381 14.8407L0.750732 14.705C0.393643 14.322 0.19125 13.8012 0.191162 13.2567V2.53113C0.191162 2.05474 0.346009 1.59606 0.623779 1.2323L0.750732 1.08191C1.10766 0.699207 1.59009 0.485229 2.09155 0.485229ZM1.99194 13.3563H18.1912V2.43054H1.99194V13.3563ZM11.0916 7.99402H16.0916C16.3279 7.99402 16.5559 8.09454 16.7253 8.27625C16.8948 8.45808 16.9918 8.70579 16.9919 8.9657C16.9919 9.2258 16.895 9.47419 16.7253 9.65613C16.5559 9.83783 16.3279 9.93835 16.0916 9.93835H11.0916C10.8552 9.93835 10.6272 9.83783 10.4578 9.65613C10.2881 9.47419 10.1912 9.2258 10.1912 8.9657C10.1913 8.70579 10.2883 8.45808 10.4578 8.27625C10.6272 8.09454 10.8552 7.99402 11.0916 7.99402ZM11.0916 4.77625H16.0916C16.2983 4.77625 16.4986 4.85312 16.6589 4.99402L16.7253 5.05847C16.8949 5.24041 16.9919 5.48882 16.9919 5.7489C16.9918 6.00881 16.8948 6.25653 16.7253 6.43835C16.5559 6.62006 16.3279 6.72058 16.0916 6.72058H11.0916C10.8552 6.72058 10.6272 6.62006 10.4578 6.43835C10.2883 6.25653 10.1913 6.00881 10.1912 5.7489C10.1912 5.52144 10.2653 5.30265 10.3972 5.12976L10.4578 5.05847C10.6272 4.87677 10.8552 4.77625 11.0916 4.77625Z" fill="#181725" stroke="white" stroke-width="0.2"/>
<g clip-path="url(#clip0_1_1299)">
<path d="M6.84178 5.58134V6.14404C6.84178 6.44845 6.7042 6.73442 6.46571 6.93736C6.21806 7.14953 5.89702 7.26945 5.55764 7.26945C5.21826 7.26945 4.88805 7.14953 4.64957 6.93736C4.41109 6.73442 4.2735 6.44845 4.2735 6.14404V5.58134C4.2735 5.28615 4.41109 5.00019 4.64957 4.78802C4.88805 4.57585 5.21826 4.45593 5.55764 4.45593C5.89702 4.45593 6.21806 4.57585 6.46571 4.78802C6.7042 5.00019 6.84178 5.28615 6.84178 5.58134Z" fill="#181725"/>
<path d="M7.80492 8.90212V9.36335C7.80492 9.58475 7.69485 9.80614 7.52058 9.96296C7.33713 10.1198 7.08947 10.212 6.84182 10.212H4.27353C4.0167 10.212 3.76905 10.1198 3.59477 9.96296C3.41132 9.80614 3.31042 9.58475 3.31042 9.36335V8.87445C3.31042 8.56081 3.42049 8.24717 3.62229 7.98888C3.82408 7.73059 4.10843 7.52765 4.43864 7.40773C4.4845 7.39851 4.52119 7.38928 4.56705 7.38928C4.61291 7.38928 4.6496 7.39851 4.69546 7.40773H6.33733C6.35568 7.40773 6.36485 7.40773 6.37402 7.41696C6.37402 7.40773 6.38319 7.40773 6.38319 7.40773C6.52995 7.39851 6.62168 7.40773 6.63085 7.40773C6.9794 7.52765 7.27292 7.73059 7.48389 7.99811C7.68568 8.26562 7.80492 8.57926 7.80492 8.90212Z" fill="#181725"/>
</g>
<defs>
<clipPath id="clip0_1_1299">
<rect width="6" height="7.68429" fill="white" transform="translate(3.09155 4.45593)"/>
</clipPath>
</defs>
</svg>
