<svg width="24" height="23" viewBox="0 0 24 23" fill="none" xmlns="http://www.w3.org/2000/svg">
<path d="M14.431 1.0389C14.716 0.765352 15.1785 0.765298 15.4635 1.0389L17.639 3.1286C17.924 3.40231 17.9239 3.84652 17.639 4.12034C17.024 4.71109 17.0242 5.67264 17.639 6.26349C18.2541 6.85431 19.2551 6.85429 19.8702 6.26349C20.1552 5.98995 20.6177 5.98992 20.9027 6.26349L23.0783 8.35319C23.3632 8.6269 23.3631 9.07111 23.0783 9.34493L9.75166 22.1456C9.46663 22.4192 9.00418 22.4194 8.71917 22.1456L6.54362 20.0559C6.25881 19.7821 6.25882 19.3379 6.54362 19.0642C7.15872 18.4733 7.15872 17.5118 6.54362 16.921C5.9285 16.3304 4.92741 16.3303 4.31242 16.921C4.02739 17.1946 3.56494 17.1948 3.27993 16.921L1.10438 14.8313C0.819526 14.5576 0.819564 14.1133 1.10438 13.8396L14.431 1.0389ZM3.86097 15.4956C5.02836 14.8196 6.56952 14.9626 7.57611 15.9293C8.58266 16.8961 8.73126 18.3764 8.02756 19.4978L9.23612 20.6587L12.1477 17.862L11.0321 16.7905C10.7471 16.5168 10.7467 16.0732 11.0314 15.7994C11.3164 15.5256 11.7788 15.5256 12.0639 15.7994L13.1794 16.871L21.5302 8.84973L20.3217 7.68887C19.1542 8.36484 17.6131 8.22206 16.6065 7.25523C15.6001 6.28834 15.4513 4.80806 16.1551 3.68671L14.9472 2.52652L6.59644 10.5477L7.71204 11.6193C7.99706 11.8931 7.99706 12.3373 7.71204 12.6111C7.42699 12.8845 6.96521 12.8841 6.68025 12.6104L5.56465 11.5388L2.65311 14.3354L3.86097 15.4956Z" fill="#181725" stroke="#181725" stroke-width="0.3"/>
<path d="M8.31141 13.1864C8.59637 12.9127 9.05895 12.9127 9.3439 13.1864L10.4313 14.2309C10.7163 14.5046 10.7163 14.9489 10.4313 15.2226C10.1464 15.4963 9.68381 15.4964 9.39883 15.2226L8.31141 14.1781C8.0265 13.9044 8.02646 13.4601 8.31141 13.1864Z" fill="#181725" stroke="#181725" stroke-width="0.3"/>
</svg>
